<svg width="466" height="466" viewBox="0 0 466 466" fill="none" xmlns="http://www.w3.org/2000/svg">
<g clip-path="url(#clip0_40_91)" filter="url(#filter0_d_40_91)">
<path d="M278.695 247.185C259.59 260.502 242.103 227.27 242.103 227.27C242.103 227.27 248.89 214.753 239.058 208.304C247.075 193.589 238.75 189.855 238.75 189.855C226.618 183.252 212.359 181.739 199.111 185.649C185.862 189.559 174.71 198.572 168.107 210.705C166.641 213.375 165.459 216.192 164.581 219.109C164.225 220.148 163.945 221.186 163.655 222.228L163.595 222.539C162.143 228.033 161.604 233.729 162 239.398C161.382 243.045 160.156 247.1 157.343 252.285C147.385 270.581 105.814 259.814 85.8893 296.409C85.6851 296.785 85.6432 297.232 85.5066 297.652C84.8151 298.768 84.0443 299.8 83.4064 300.987C60.0337 343.932 79.9947 399.937 128.009 426.06C173.61 450.887 228.059 439.748 253.435 401.75C253.923 401.27 254.424 400.796 254.762 400.175C255.259 399.246 255.608 398.405 256.071 397.508C256.456 396.862 256.886 396.257 257.258 395.604C269.177 373.688 269.658 351.434 260.964 331.398C257.365 321.708 254.108 314.241 258.017 307.06C262.995 297.912 286.27 298.721 296.228 280.425C311.121 252.983 290.788 238.772 278.695 247.185Z" fill="#821022"/>
<path d="M205.487 250.881L313.508 52.4167L340.955 67.3629L232.937 265.837L205.487 250.881Z" fill="#292F33"/>
<path d="M185.82 367.727C207.389 375.231 215.632 396.648 218.401 409.711C219.539 415.11 226.234 417.152 230.06 413.189C251.373 391.085 264.865 361.765 247.248 322.826C243.971 315.81 242.114 301.348 262.852 292.089C283.587 282.82 288.994 272.438 290.523 267.794C291.4 265.135 290.967 258.627 284.888 260.182C278.819 261.734 265.283 270.812 247.261 258.949C229.239 247.086 225.116 241.287 223.944 238.972C222.772 236.657 198.975 206.221 193.221 227.794C188.445 245.723 186.955 278.615 155.99 296.204C143.384 303.356 128.292 315.294 126.163 326.294C122.58 344.772 138.793 352.162 152.158 356.451C165.529 360.726 185.82 367.727 185.82 367.727Z" fill="#F5F8FA"/>
<path d="M187.835 261.543L197.79 243.237L243.54 268.128L233.582 286.424L187.835 261.543ZM156.319 319.436L166.286 301.137L212.027 326.031L202.069 344.327L156.319 319.436Z" fill="#292F33"/>
<path d="M154.059 355.976L307.709 74.2754L314.569 78.0177L160.93 359.716L154.059 355.976ZM165.301 362.086L318.953 80.3949L325.813 84.1372L172.177 365.845L165.301 362.086Z" fill="#CCD6DD"/>
<path d="M181.576 360.193C186.61 362.932 188.485 369.287 185.746 374.32C183.006 379.353 176.652 381.229 171.619 378.489L144.165 363.556C141.745 362.229 139.949 359.999 139.167 357.352C138.386 354.705 138.684 351.857 139.996 349.429L140.006 349.426C141.332 347.006 143.563 345.21 146.209 344.429C148.856 343.648 151.704 343.945 154.132 345.257L181.576 360.193Z" fill="#292F33"/>
<path d="M220.254 373.009C225.772 371.38 228.925 365.587 227.297 360.069C225.668 354.552 219.875 351.399 214.357 353.027C208.84 354.656 205.687 360.449 207.315 365.966C208.944 371.484 214.737 374.637 220.254 373.009Z" fill="#292F33"/>
<path d="M238.318 382.068C238.855 383.886 238.647 385.842 237.741 387.507C236.835 389.171 235.305 390.408 233.487 390.944C231.67 391.481 229.713 391.273 228.049 390.367C226.384 389.461 225.148 387.931 224.611 386.113C224.075 384.296 224.282 382.339 225.188 380.675C226.094 379.01 227.624 377.774 229.442 377.237C231.26 376.701 233.216 376.908 234.881 377.814C236.545 378.72 237.782 380.25 238.318 382.068Z" fill="#292F33"/>
<path d="M363.938 48.0466C366.524 49.4629 368.442 51.8458 369.275 54.6737C370.108 57.5016 369.786 60.5441 368.381 63.1354L333.706 106.169C332.289 108.753 329.908 110.672 327.081 111.506C324.255 112.34 321.213 112.022 318.62 110.621L289.31 94.6608C286.725 93.2445 284.806 90.8616 283.973 88.0337C283.141 85.2059 283.462 82.1633 284.868 79.572L302.181 27.0982C303.597 24.514 305.979 22.5953 308.805 21.7611C311.632 20.9269 314.674 21.2449 317.266 22.6458L363.938 48.0466Z" fill="#821022"/>
<path d="M350.495 111.608C353.943 110.59 355.914 106.969 354.896 103.521C353.878 100.072 350.258 98.1015 346.809 99.1193C343.361 100.137 341.39 103.758 342.408 107.206C343.426 110.655 347.046 112.625 350.495 111.608Z" fill="#66757F"/>
<path d="M360.571 99.4562C364.02 98.4385 365.991 94.8178 364.973 91.3692C363.955 87.9207 360.334 85.9502 356.886 86.9679C353.437 87.9857 351.467 91.6064 352.484 95.0549C353.502 98.5035 357.123 100.474 360.571 99.4562Z" fill="#66757F"/>
<path d="M370.658 87.3019C374.106 86.2842 376.077 82.6635 375.059 79.2149C374.041 75.7664 370.421 73.7959 366.972 74.8136C363.524 75.8314 361.553 79.4521 362.571 82.9006C363.589 86.3492 367.209 88.3197 370.658 87.3019Z" fill="#66757F"/>
<path d="M279.95 71.7048C283.398 70.687 285.369 67.0663 284.351 63.6178C283.333 60.1692 279.713 58.1987 276.264 59.2165C272.816 60.2343 270.845 63.8549 271.863 67.3035C272.881 70.752 276.501 72.7225 279.95 71.7048Z" fill="#66757F"/>
<path d="M284.716 56.8307C288.164 55.813 290.135 52.1923 289.117 48.7437C288.099 45.2952 284.478 43.3247 281.03 44.3424C277.581 45.3602 275.611 48.9809 276.629 52.4295C277.646 55.878 281.267 57.8485 284.716 56.8307Z" fill="#66757F"/>
<path d="M289.485 41.9667C292.933 40.949 294.904 37.3283 293.886 33.8797C292.868 30.4312 289.247 28.4607 285.799 29.4784C282.35 30.4962 280.38 34.1169 281.398 37.5654C282.415 41.014 286.036 42.9845 289.485 41.9667Z" fill="#66757F"/>
</g>
<defs>
<filter id="filter0_d_40_91" x="0" y="0" width="477.812" height="486.812" filterUnits="userSpaceOnUse" color-interpolation-filters="sRGB">
<feFlood flood-opacity="0" result="BackgroundImageFix"/>
<feColorMatrix in="SourceAlpha" type="matrix" values="0 0 0 0 0 0 0 0 0 0 0 0 0 0 0 0 0 0 127 0" result="hardAlpha"/>
<feOffset dx="6" dy="15"/>
<feGaussianBlur stdDeviation="3"/>
<feComposite in2="hardAlpha" operator="out"/>
<feColorMatrix type="matrix" values="0 0 0 0 0 0 0 0 0 0 0 0 0 0 0 0 0 0 0.25 0"/>
<feBlend mode="normal" in2="BackgroundImageFix" result="effect1_dropShadow_40_91"/>
<feBlend mode="normal" in="SourceGraphic" in2="effect1_dropShadow_40_91" result="shape"/>
</filter>
<clipPath id="clip0_40_91">
<rect width="375" height="375" fill="white" transform="translate(0 106.148) rotate(-16.4431)"/>
</clipPath>
</defs>
</svg>
