<svg width="329" height="314" viewBox="0 0 329 314" fill="none" xmlns="http://www.w3.org/2000/svg">
<path d="M298.002 145.372C297.138 143.83 295.898 142.507 294.387 141.517C292.875 140.526 291.136 139.896 289.316 139.68C283.582 139.135 275.56 141.582 272.589 146.47C271.692 147.873 271.261 149.503 271.355 151.144C271.449 152.784 272.063 154.36 273.115 155.661C274.669 157.262 276.754 158.305 279.019 158.614C280.09 158.81 281.178 158.908 282.27 158.908C285.24 158.9 288.166 158.22 290.806 156.923C293.447 155.626 295.727 153.75 297.459 151.449C298.12 150.579 298.52 149.553 298.616 148.483C298.711 147.412 298.499 146.337 298.002 145.372Z" fill="#26C1AC"/>
<path d="M264.428 167.742C264.291 167.742 264.156 167.724 264.025 167.689C263.671 167.583 263.374 167.35 263.199 167.038C263.024 166.726 262.985 166.361 263.089 166.022C264.636 161.321 267.506 157.114 271.386 153.859C275.268 150.602 280.01 148.421 285.099 147.551C285.377 147.508 285.662 147.545 285.918 147.656C286.175 147.766 286.391 147.947 286.541 148.174C286.738 148.481 286.801 148.849 286.715 149.2C286.674 149.374 286.597 149.538 286.487 149.683C286.378 149.828 286.24 149.95 286.08 150.043C285.921 150.136 285.744 150.199 285.56 150.227C280.989 151.008 276.73 152.968 273.244 155.894C269.759 158.82 267.179 162.6 265.787 166.824C265.693 167.095 265.51 167.331 265.265 167.497C265.021 167.662 264.727 167.747 264.428 167.742Z" fill="#04413C"/>
<path d="M323.047 282.845C322.344 272.503 319.515 262.216 317.236 253.945C316.196 250.135 315.287 246.851 314.697 244.014C310.5 223.795 305.674 201.541 301.578 193.386C298.29 186.847 294.889 180.082 289.481 174.648C280.392 165.457 269.081 160.041 257.621 159.418C251.526 158.999 245.399 159.471 239.452 160.818C231.234 162.951 224.026 168.652 219.68 176.468C215.238 184.499 214.854 193.421 214.488 202.006L214.432 203.255C214.263 207.118 214.272 211.963 214.319 217.183C209.718 215.971 205.056 214.985 200.349 214.23C197.406 213.855 194.295 213.667 191.484 214.818C188.503 216.042 185.945 219.279 186.845 222.591C187.435 224.768 189.301 226.248 190.66 227.329L214.208 246.12C213.644 257.791 211.274 266.285 209.174 273.78C208.407 276.519 207.685 279.133 207.085 281.703C206.653 283.556 206.663 285.478 207.116 287.327C207.568 289.175 208.451 290.903 209.699 292.382C210.948 293.862 212.53 295.056 214.327 295.876C216.123 296.696 218.09 297.122 220.083 297.122H309.057C310.97 297.128 312.865 296.758 314.621 296.033C316.377 295.308 317.957 294.245 319.262 292.91C320.579 291.567 321.594 289.981 322.245 288.25C322.896 286.519 323.169 284.68 323.047 282.845Z" fill="#94D6CE"/>
<path opacity="0.2" d="M323.047 282.845C322.344 272.503 319.523 262.224 317.247 253.953L316.712 252.026C316.667 251.837 316.58 251.66 316.456 251.506C316.332 251.353 316.175 251.227 315.994 251.138C315.814 251.048 315.616 250.998 315.413 250.989C315.21 250.981 315.008 251.015 314.82 251.088C310.279 252.947 305.844 255.033 301.533 257.336C299.986 258.12 298.448 258.914 296.902 259.681C275.453 270.327 254.922 275.225 235.862 274.235C227.637 273.67 219.482 272.392 211.5 270.417C211.323 270.374 211.138 270.365 210.958 270.391C210.777 270.416 210.603 270.475 210.446 270.564C210.29 270.654 210.153 270.772 210.044 270.912C209.935 271.052 209.856 271.211 209.812 271.38L209.166 273.691C208.389 276.456 207.657 279.045 207.056 281.721C206.409 284.518 206.775 287.441 208.094 290.014C209.414 292.586 211.609 294.657 214.321 295.886C216.12 296.704 218.089 297.126 220.083 297.122H309.056C310.97 297.129 312.865 296.758 314.621 296.033C316.377 295.308 317.957 294.245 319.262 292.91C320.579 291.567 321.594 289.981 322.245 288.25C322.896 286.519 323.169 284.68 323.047 282.845Z" fill="#04413C"/>
<path fill-rule="evenodd" clip-rule="evenodd" d="M232.515 189.158C232.513 188.329 232.253 187.518 231.768 186.829C231.282 186.14 230.593 185.605 229.788 185.29C229.187 185.054 228.538 184.948 227.888 184.98C227.239 185.011 226.605 185.179 226.032 185.472C225.458 185.765 224.96 186.175 224.572 186.673C224.185 187.171 223.918 187.744 223.79 188.352C223.605 189.237 223.724 190.154 224.129 190.969C224.534 191.783 225.203 192.452 226.037 192.876C226.872 193.299 227.827 193.455 228.762 193.321C229.697 193.187 230.561 192.769 231.227 192.129C231.637 191.74 231.962 191.276 232.183 190.767C232.404 190.257 232.516 189.71 232.515 189.158ZM278.64 189.156C278.641 188.325 278.382 187.511 277.897 186.82C277.412 186.129 276.722 185.591 275.916 185.274C275.109 184.956 274.222 184.874 273.365 185.036C272.509 185.198 271.723 185.598 271.104 186.186C270.695 186.577 270.371 187.041 270.15 187.551C269.929 188.061 269.815 188.608 269.816 189.161C269.816 189.713 269.931 190.26 270.153 190.77C270.375 191.28 270.701 191.743 271.11 192.133C271.52 192.523 272.007 192.832 272.542 193.043C273.077 193.254 273.651 193.362 274.23 193.362C274.809 193.361 275.382 193.252 275.917 193.04C276.452 192.828 276.938 192.518 277.347 192.127C277.757 191.737 278.082 191.274 278.304 190.765C278.526 190.255 278.64 189.708 278.64 189.156Z" fill="#04413C"/>
<path d="M262.875 187.837H238.034C237.667 187.84 237.315 187.98 237.055 188.226C236.794 188.473 236.644 188.806 236.637 189.156V195.51C236.731 198.943 238.229 202.206 240.812 204.6C243.395 206.998 246.858 208.34 250.464 208.34C254.069 208.34 257.532 206.998 260.116 204.6C262.697 202.205 264.195 198.943 264.29 195.51V189.156C264.284 188.803 264.132 188.466 263.867 188.219C263.602 187.972 263.246 187.835 262.875 187.837ZM250.449 206.012C247.715 206.022 245.078 205.046 243.065 203.28C244.058 201.281 245.623 199.59 247.581 198.404C249.54 197.217 251.811 196.582 254.132 196.57C256.575 196.566 258.963 197.266 260.981 198.578C260.284 200.725 258.886 202.603 256.992 203.94C255.098 205.277 252.806 206.003 250.449 206.012Z" fill="#04413C"/>
<path d="M126.069 246.673C122.367 228.015 116.454 209.581 110.729 191.743L109.791 188.737C105.453 175.281 99.831 162.218 87.8924 157.73C76.1039 153.304 67.9714 154.357 59.2283 156.063C48.9203 158.087 42.2395 162.308 38.2669 169.285C34.0392 176.709 31.2859 192.627 31.7074 207.136C32.1187 221.277 30.6484 237.472 28.4462 243.157C26.8814 247.153 23.32 252.589 20.1801 257.351C18.5885 259.761 17.0895 262.028 16.01 263.883C12.9462 269.158 10.0058 277.733 11.8132 284.566C13.4253 290.643 16.0285 297.122 26.6285 297.122H106.551C123.98 297.122 126.632 284.521 127.765 279.141C129.328 271.736 128.721 259.905 126.069 246.673Z" fill="#FF89C2"/>
<path opacity="0.2" d="M127.792 275.34C127.638 275.196 127.452 275.088 127.247 275.025C127.042 274.962 126.825 274.945 126.612 274.976C116.718 276.33 106.72 276.856 96.7302 276.546C92.9484 276.503 89.1809 276.096 85.4845 275.332C81.4982 274.29 77.6236 272.891 73.912 271.156C67.101 268.231 60.3131 265.256 53.5489 262.234L52.9218 261.957C45.6879 258.771 38.2093 255.471 30.377 253.383C28.5017 252.883 26.5524 252.49 24.6606 252.116C24.3793 252.064 24.0882 252.097 23.8268 252.208C23.5653 252.32 23.346 252.505 23.1987 252.739C22.1664 254.292 21.1177 255.863 20.1801 257.344C18.5968 259.753 17.0895 262.028 16.01 263.885C12.9462 269.158 10.0058 277.733 11.8132 284.568C13.4253 290.643 16.0285 297.122 26.6285 297.122H106.551C123.98 297.122 126.632 284.523 127.765 279.142C127.934 278.356 128.074 277.484 128.205 276.466C128.235 276.261 128.213 276.052 128.141 275.856C128.07 275.66 127.949 275.484 127.792 275.34Z" fill="#670A6F"/>
<path fill-rule="evenodd" clip-rule="evenodd" d="M59.9253 189.335C59.8226 188.568 59.4837 187.848 58.9514 187.265C58.4192 186.682 57.7176 186.263 56.9355 186.06C56.3508 185.909 55.7382 185.883 55.1417 185.984C54.5451 186.084 53.9793 186.31 53.4848 186.643C52.9902 186.977 52.5791 187.411 52.2809 187.914C51.9827 188.417 51.8048 188.976 51.7599 189.552C51.7022 190.324 51.886 191.094 52.288 191.765C52.6899 192.436 53.292 192.979 54.0176 193.323C54.6824 193.639 55.4243 193.776 56.1646 193.722C56.9049 193.667 57.6158 193.422 58.2218 193.013C58.8278 192.604 59.3062 192.046 59.6062 191.398C59.9061 190.751 60.0164 190.038 59.9253 189.335ZM102.512 184.213C102.409 183.446 102.07 182.725 101.537 182.142C101.004 181.559 100.301 181.14 99.5183 180.938C98.7353 180.736 97.907 180.759 97.1375 181.004C96.3681 181.249 95.6919 181.706 95.194 182.317C94.696 182.928 94.3998 183.667 94.343 184.44C94.2862 185.212 94.4714 185.983 94.8751 186.655C95.2788 187.327 95.8828 187.869 96.6103 188.213C97.3378 188.556 98.156 188.686 98.9611 188.586C99.7673 188.491 100.526 188.169 101.139 187.662C101.753 187.154 102.195 186.484 102.407 185.737C102.547 185.241 102.584 184.723 102.512 184.213Z" fill="#670A6F"/>
<path d="M76.9037 199.276C74.7074 199.267 72.5898 198.496 70.9464 197.107C69.3029 195.717 68.2461 193.805 67.9734 191.727L67.449 187.837C67.4109 187.529 67.4848 187.219 67.6585 186.958C67.8322 186.697 68.0949 186.501 68.4025 186.403C68.71 186.305 69.0437 186.311 69.3471 186.42C69.6506 186.529 69.9054 186.734 70.0687 187.001C70.1599 187.154 70.2186 187.323 70.2414 187.497L70.7575 191.388C70.8801 192.583 71.3786 193.715 72.1877 194.635C72.9968 195.556 74.0788 196.221 75.2916 196.545C76.0965 196.761 76.9386 196.821 77.7682 196.721C78.5978 196.622 79.3981 196.365 80.1219 195.966C80.8457 195.566 81.4784 195.033 81.9827 194.397C82.487 193.761 82.8526 193.035 83.058 192.262C83.2636 191.49 83.3006 190.686 83.1732 189.899L82.6488 186.009C82.6162 185.746 82.6657 185.48 82.7909 185.243C82.9161 185.007 83.1117 184.811 83.353 184.68C83.5943 184.549 83.8708 184.489 84.1479 184.507C84.4249 184.525 84.6902 184.621 84.9107 184.782C85.0568 184.89 85.1789 185.025 85.2699 185.179C85.361 185.333 85.4192 185.502 85.4412 185.678L85.9553 189.56C86.1814 191.255 85.874 192.976 85.0722 194.504C84.2703 196.032 83.0103 197.298 81.4521 198.141C80.0673 198.893 78.4973 199.285 76.9037 199.276Z" fill="#670A6F"/>
<path d="M58.2206 195.937L55.1568 196.302C54.4208 196.399 53.7283 196.692 53.159 197.147C52.5897 197.602 52.1666 198.202 51.9383 198.876C51.7101 199.55 51.6859 200.272 51.8685 200.959C52.0512 201.646 52.4334 202.27 52.971 202.759C53.6907 203.414 54.6469 203.784 55.6442 203.796C55.8087 203.806 55.9752 203.806 56.1418 203.796L59.2138 203.431C60.2513 203.306 61.1941 202.793 61.8356 202.005C62.477 201.217 62.7646 200.219 62.6354 199.229C62.5702 198.739 62.4042 198.266 62.1471 197.837C61.89 197.408 61.5467 197.031 61.1369 196.729C60.7271 196.426 60.2588 196.204 59.7587 196.074C59.2587 195.944 58.7367 195.91 58.2227 195.972V195.935L58.2206 195.937ZM105.224 194.072C105.129 193.334 104.805 192.64 104.294 192.078C103.783 191.516 103.109 191.112 102.356 190.917C101.856 190.787 101.334 190.753 100.82 190.815L97.7459 191.182C96.7095 191.31 95.7681 191.823 95.1275 192.611C94.4868 193.398 94.1988 194.395 94.3263 195.384C94.4493 196.291 94.913 197.124 95.6315 197.73C96.35 198.335 97.2744 198.672 98.2332 198.676C98.4018 198.684 98.5704 198.684 98.7391 198.676L101.803 198.31C102.841 198.184 103.784 197.671 104.425 196.884C105.067 196.096 105.354 195.097 105.224 194.107V194.072Z" fill="#FFCEE6"/>
<path d="M145.924 241.472C145.619 240.769 145.107 240.165 144.451 239.732C143.794 239.3 143.02 239.058 142.223 239.035C140.416 238.958 138.618 239.318 136.996 240.08L118.169 247.308C117.903 247.407 117.676 247.58 117.516 247.806C117.357 248.031 117.273 248.297 117.276 248.569C117.276 248.749 117.317 248.926 117.391 249.092C117.486 249.318 117.645 249.514 117.85 249.659C118.056 249.804 118.299 249.891 118.553 249.912L116.427 269.899L115.378 270.668C115.144 270.836 114.972 271.071 114.886 271.339C114.801 271.607 114.806 271.893 114.901 272.158C114.994 272.423 115.173 272.654 115.411 272.817C115.65 272.981 115.936 273.068 116.23 273.068C116.538 273.068 116.838 272.972 117.083 272.791C117.175 272.719 126.677 265.785 131.316 262.191C131.972 261.681 132.647 261.181 133.311 260.673C136.278 258.573 139.005 256.181 141.445 253.536C141.511 253.473 147.77 245.843 145.924 241.472Z" fill="#FF89C2"/>
<path d="M128.374 263.214C128.036 263.215 127.709 263.098 127.455 262.887C127.2 262.675 127.034 262.383 126.988 262.063C126.468 258.472 125.915 254.885 125.328 251.302C124.917 248.766 124.508 246.229 124.101 243.692L123.753 241.523C123.711 241.258 123.752 240.986 123.872 240.743C123.992 240.501 124.184 240.297 124.426 240.159C124.667 240.021 124.946 239.954 125.228 239.968C125.509 239.981 125.779 240.074 126.005 240.235C126.155 240.34 126.281 240.473 126.377 240.625C126.473 240.777 126.537 240.946 126.564 241.121L126.914 243.29C127.333 245.914 127.747 248.465 128.139 250.892C128.729 254.461 129.301 258.183 129.807 261.699C129.834 261.873 129.824 262.051 129.778 262.221C129.731 262.392 129.65 262.552 129.539 262.692C129.427 262.832 129.287 262.95 129.128 263.039C128.968 263.127 128.791 263.184 128.608 263.207L128.374 263.214Z" fill="#670A6F"/>
<path d="M175.23 236.572L164.492 192.956C164.345 192.358 164.076 191.793 163.701 191.294C163.325 190.795 162.85 190.371 162.302 190.047C161.755 189.723 161.146 189.505 160.51 189.406C159.874 189.307 159.224 189.328 158.597 189.468L91.6245 204.396C90.358 204.68 89.2614 205.431 88.5749 206.485C87.8884 207.539 87.6681 208.809 87.9623 210.018L98.6815 253.632C98.9902 254.83 99.7822 255.864 100.886 256.509C101.989 257.154 103.315 257.358 104.575 257.077L171.557 242.149C172.823 241.867 173.92 241.118 174.609 240.066C174.948 239.545 175.176 238.965 175.28 238.359C175.383 237.753 175.36 237.134 175.211 236.537L175.23 236.572Z" fill="#F49709"/>
<path opacity="0.3" d="M175.234 236.57L164.494 192.956C164.352 192.357 164.085 191.791 163.71 191.291C163.335 190.791 162.859 190.368 162.31 190.047C161.19 189.387 159.842 189.179 158.562 189.468L134.573 194.821C134.213 194.904 133.9 195.119 133.704 195.42C133.508 195.72 133.444 196.082 133.525 196.427L145.837 246.537C145.912 246.83 146.087 247.09 146.335 247.276C146.583 247.462 146.889 247.563 147.205 247.563C147.314 247.577 147.425 247.577 147.534 247.563L171.522 242.21C172.788 241.928 173.885 241.179 174.574 240.127C174.913 239.606 175.141 239.025 175.244 238.42C175.348 237.814 175.324 237.195 175.176 236.598L175.234 236.57Z" fill="#803700"/>
<path d="M147.256 247.563C146.94 247.563 146.633 247.462 146.385 247.276C146.137 247.09 145.961 246.83 145.887 246.537L133.566 196.427C133.481 196.081 133.544 195.718 133.741 195.416C133.938 195.115 134.252 194.9 134.614 194.819C134.977 194.739 135.358 194.799 135.675 194.986C135.991 195.174 136.216 195.474 136.301 195.819L148.624 245.922C148.671 246.118 148.672 246.322 148.625 246.518C148.579 246.715 148.486 246.899 148.355 247.057C148.224 247.214 148.056 247.342 147.866 247.429C147.676 247.517 147.467 247.563 147.256 247.563Z" fill="#803700"/>
<path d="M79.7229 244.106L107.834 239.645C110.581 239.215 113.859 238.957 115.668 240.974C116.213 241.671 116.565 242.488 116.691 243.349C116.818 244.21 116.714 245.087 116.39 245.9C115.73 247.518 114.758 249.004 113.524 250.281C107.528 257.156 100.594 263.236 92.9076 268.358" fill="#FF89C2"/>
<path d="M92.9137 269.74C92.6889 269.741 92.4674 269.689 92.2682 269.589C92.069 269.49 91.8982 269.346 91.7705 269.169C91.6094 268.953 91.5195 268.696 91.5122 268.431C91.5049 268.166 91.5805 267.905 91.7293 267.681C91.8278 267.533 91.9565 267.405 92.1077 267.305C99.6902 262.251 106.527 256.248 112.434 249.459C113.559 248.312 114.449 246.975 115.057 245.516C115.3 244.921 115.386 244.278 115.306 243.645C115.226 243.011 114.983 242.407 114.599 241.884C113.277 240.411 110.548 240.617 108.04 240.992L79.9265 245.408C79.742 245.438 79.553 245.432 79.3708 245.391C79.1886 245.35 79.0168 245.275 78.8654 245.17C78.6373 245.013 78.4628 244.796 78.3641 244.545C78.2653 244.293 78.2466 244.02 78.3103 243.759C78.3528 243.585 78.431 243.421 78.5405 243.277C78.6499 243.133 78.7883 243.01 78.9477 242.917C79.1067 242.824 79.2834 242.76 79.4679 242.731L107.579 238.315C110.84 237.805 114.486 237.619 116.707 240.1C117.417 240.974 117.88 242.006 118.054 243.099C118.228 244.192 118.106 245.31 117.7 246.345C116.986 248.123 115.924 249.755 114.57 251.155C108.508 258.118 101.496 264.276 93.7198 269.464C93.4875 269.633 93.2059 269.73 92.9137 269.74Z" fill="#670A6F"/>
<path d="M242.586 251.063C242.372 251.062 242.161 251.017 241.967 250.929C235.696 248.008 229.733 244.518 224.162 240.507C222.579 239.478 221.208 238.181 220.115 236.68C219.495 235.804 219.112 234.796 218.999 233.746C218.886 232.695 219.047 231.633 219.468 230.656C220.967 227.615 224.752 226.989 227.902 226.776C239.605 225.989 251.488 225.713 263.219 225.946C263.496 225.954 263.765 226.038 263.993 226.189C264.221 226.341 264.398 226.552 264.502 226.797C264.635 227.128 264.626 227.496 264.477 227.82C264.327 228.145 264.05 228.4 263.704 228.53C263.532 228.595 263.348 228.626 263.163 228.623C251.468 228.392 239.767 228.665 228.098 229.442C225.727 229.603 222.898 230.015 222.017 231.799C221.804 232.371 221.737 232.984 221.822 233.586C221.906 234.188 222.141 234.762 222.505 235.26C223.422 236.482 224.561 237.537 225.869 238.374C231.292 242.279 237.097 245.676 243.203 248.52C243.489 248.652 243.719 248.873 243.856 249.147C243.992 249.42 244.028 249.73 243.956 250.025C243.885 250.321 243.71 250.584 243.461 250.772C243.212 250.961 242.904 251.063 242.586 251.063Z" fill="#04413C"/>
<path d="M140.01 117.257C139.638 117.257 139.281 117.116 139.017 116.866C138.753 116.615 138.605 116.275 138.604 115.92V113.849C138.602 113.583 138.684 113.323 138.838 113.102C138.992 112.881 139.212 112.708 139.47 112.607C139.727 112.505 140.01 112.479 140.284 112.531C140.557 112.584 140.807 112.713 141.003 112.902C141.266 113.155 141.414 113.494 141.414 113.849V115.92C141.414 116.096 141.378 116.27 141.307 116.432C141.237 116.594 141.133 116.742 141.003 116.866C140.872 116.99 140.718 117.089 140.547 117.156C140.377 117.223 140.194 117.257 140.01 117.257ZM146.9 122.085H144.727C144.45 122.084 144.179 122.005 143.949 121.858C143.719 121.711 143.539 121.502 143.433 121.258C143.327 121.014 143.298 120.746 143.351 120.486C143.405 120.227 143.537 119.988 143.732 119.8C143.863 119.676 144.018 119.577 144.188 119.51C144.359 119.443 144.542 119.408 144.727 119.408H146.9C147.177 119.41 147.448 119.489 147.678 119.636C147.908 119.783 148.087 119.992 148.193 120.236C148.299 120.48 148.327 120.748 148.274 121.007C148.221 121.266 148.088 121.505 147.894 121.693C147.63 121.944 147.273 122.085 146.9 122.085ZM139.65 128.644C139.278 128.643 138.921 128.502 138.658 128.251C138.394 128 138.246 127.66 138.246 127.305V125.236C138.246 124.88 138.394 124.54 138.657 124.288C138.921 124.037 139.278 123.896 139.651 123.896C140.024 123.896 140.381 124.037 140.645 124.288C140.909 124.54 141.057 124.88 141.057 125.236V127.307C141.057 127.483 141.02 127.657 140.949 127.819C140.879 127.982 140.775 128.129 140.644 128.254C140.514 128.378 140.359 128.476 140.188 128.543C140.017 128.61 139.835 128.644 139.65 128.644ZM134.941 121.736H132.766C132.489 121.735 132.219 121.655 131.989 121.508C131.759 121.361 131.579 121.152 131.473 120.908C131.367 120.664 131.339 120.396 131.392 120.137C131.446 119.878 131.578 119.639 131.773 119.451C132.036 119.2 132.393 119.059 132.766 119.059H134.941C135.219 119.06 135.49 119.139 135.72 119.286C135.95 119.434 136.13 119.643 136.236 119.887C136.342 120.131 136.37 120.4 136.316 120.66C136.263 120.919 136.13 121.158 135.935 121.346C135.671 121.597 135.314 121.736 134.941 121.736ZM184.281 173.65C183.908 173.65 183.551 173.509 183.287 173.258C183.024 173.006 182.875 172.666 182.875 172.31V170.652C182.874 170.386 182.955 170.127 183.109 169.906C183.264 169.685 183.483 169.513 183.74 169.411C183.997 169.31 184.28 169.283 184.553 169.335C184.826 169.388 185.076 169.516 185.272 169.704C185.403 169.829 185.506 169.976 185.577 170.139C185.648 170.301 185.684 170.476 185.683 170.652V172.31C185.684 172.486 185.648 172.661 185.577 172.823C185.507 172.986 185.403 173.134 185.273 173.258C185.142 173.382 184.987 173.481 184.817 173.548C184.646 173.616 184.466 173.65 184.281 173.65ZM189.788 177.558H188.046C187.769 177.557 187.498 177.478 187.268 177.331C187.038 177.184 186.858 176.975 186.752 176.731C186.646 176.487 186.617 176.219 186.67 175.959C186.724 175.7 186.856 175.461 187.051 175.273C187.182 175.149 187.337 175.05 187.508 174.983C187.678 174.916 187.861 174.881 188.046 174.881H189.788C190.065 174.882 190.335 174.961 190.566 175.108C190.796 175.255 190.975 175.464 191.082 175.708C191.188 175.952 191.216 176.22 191.163 176.48C191.11 176.739 190.978 176.978 190.783 177.166C190.652 177.29 190.497 177.389 190.326 177.456C190.155 177.523 189.972 177.558 189.788 177.558ZM183.991 182.76C183.618 182.76 183.261 182.619 182.997 182.368C182.734 182.117 182.585 181.776 182.585 181.421V179.77C182.584 179.504 182.666 179.244 182.82 179.023C182.974 178.802 183.194 178.63 183.452 178.529C183.709 178.427 183.992 178.401 184.265 178.454C184.538 178.507 184.788 178.636 184.984 178.824C185.25 179.075 185.396 179.415 185.396 179.77V181.421C185.396 181.597 185.36 181.771 185.289 181.933C185.219 182.096 185.115 182.244 184.985 182.368C184.854 182.493 184.699 182.591 184.529 182.658C184.358 182.726 184.176 182.76 183.991 182.76ZM180.222 177.236H178.478C178.201 177.235 177.931 177.156 177.701 177.008C177.471 176.861 177.292 176.653 177.186 176.409C177.08 176.165 177.052 175.896 177.105 175.637C177.158 175.378 177.29 175.14 177.485 174.952C177.749 174.701 178.106 174.56 178.478 174.56H180.222C180.499 174.561 180.769 174.64 180.999 174.787C181.229 174.934 181.408 175.143 181.514 175.387C181.621 175.631 181.649 175.899 181.595 176.159C181.542 176.418 181.41 176.656 181.215 176.844C180.952 177.095 180.594 177.236 180.222 177.236ZM203.419 136.742C203.046 136.74 202.69 136.599 202.426 136.348C202.163 136.097 202.013 135.758 202.01 135.403C202.01 135.227 202.047 135.053 202.118 134.891C202.189 134.728 202.294 134.581 202.425 134.458L204.206 132.762C204.474 132.535 204.823 132.415 205.181 132.425C205.539 132.436 205.879 132.576 206.132 132.817C206.386 133.059 206.533 133.383 206.544 133.724C206.555 134.066 206.43 134.398 206.192 134.654L204.412 136.35C204.148 136.6 203.791 136.741 203.419 136.742ZM204.895 146.066C204.523 146.063 204.167 145.923 203.902 145.674L202.121 143.98C201.959 143.824 201.84 143.632 201.774 143.421C201.707 143.211 201.696 142.988 201.741 142.773C201.786 142.557 201.885 142.355 202.031 142.185C202.176 142.015 202.363 141.881 202.576 141.795C202.832 141.693 203.115 141.666 203.388 141.718C203.661 141.771 203.912 141.899 204.107 142.088L205.888 143.784C206.086 143.97 206.22 144.208 206.274 144.468C206.329 144.727 206.3 144.997 206.192 145.241C206.085 145.484 205.905 145.693 205.675 145.839C205.445 145.986 205.174 146.065 204.897 146.066H204.895ZM193.322 145.782C192.951 145.779 192.594 145.638 192.329 145.39C192.068 145.138 191.922 144.798 191.922 144.444C191.922 144.089 192.068 143.75 192.329 143.497L194.11 141.801C194.376 141.565 194.729 141.436 195.093 141.441C195.457 141.447 195.804 141.587 196.063 141.832C196.321 142.076 196.47 142.407 196.478 142.754C196.486 143.101 196.353 143.438 196.107 143.694L194.318 145.433C194.047 145.669 193.689 145.795 193.322 145.782ZM195.414 136.458C195.229 136.459 195.046 136.425 194.875 136.357C194.705 136.289 194.55 136.19 194.42 136.064L192.603 134.37C192.34 134.118 192.192 133.778 192.192 133.423C192.192 133.068 192.34 132.727 192.604 132.476C192.867 132.226 193.224 132.085 193.597 132.085C193.969 132.085 194.326 132.226 194.589 132.477L196.37 134.172C196.501 134.295 196.606 134.442 196.677 134.605C196.749 134.767 196.785 134.942 196.785 135.118C196.785 135.294 196.749 135.468 196.677 135.631C196.606 135.793 196.501 135.94 196.37 136.064C196.245 136.186 196.097 136.283 195.933 136.351C195.769 136.418 195.592 136.454 195.414 136.456V136.458ZM161.22 167.742C160.876 167.748 160.542 167.634 160.281 167.42C160.02 167.206 159.85 166.908 159.806 166.583C159.579 164.512 158.868 161.23 157.932 160.337C156.995 159.445 153.555 158.784 151.373 158.553C151.095 158.553 150.824 158.474 150.593 158.327C150.363 158.179 150.183 157.97 150.077 157.726C149.97 157.482 149.942 157.213 149.996 156.953C150.049 156.693 150.182 156.454 150.378 156.267C150.508 156.142 150.664 156.043 150.834 155.976C151.005 155.909 151.188 155.874 151.373 155.874C153.555 155.661 156.995 154.982 157.932 154.09C158.868 153.198 159.563 149.913 159.806 147.845C159.804 147.579 159.886 147.319 160.04 147.098C160.194 146.876 160.414 146.704 160.672 146.602C160.929 146.501 161.212 146.474 161.486 146.527C161.759 146.58 162.009 146.709 162.205 146.898C162.468 147.149 162.616 147.49 162.616 147.845C162.843 149.915 163.554 153.198 164.492 154.09C165.427 154.982 168.867 155.643 171.051 155.874C171.328 155.875 171.599 155.954 171.83 156.102C172.06 156.249 172.24 156.458 172.346 156.702C172.452 156.947 172.48 157.216 172.426 157.475C172.373 157.735 172.24 157.973 172.044 158.161C171.781 158.412 171.424 158.553 171.051 158.553C168.876 158.757 165.427 159.445 164.492 160.337C163.554 161.23 162.851 164.565 162.616 166.583C162.579 166.911 162.416 167.215 162.159 167.436C161.901 167.657 161.567 167.779 161.22 167.779V167.742ZM157.93 157.241C158.711 157.48 159.421 157.893 160.001 158.445C160.582 158.997 161.016 159.674 161.268 160.418C161.551 159.69 161.977 159.02 162.522 158.445C163.128 157.925 163.831 157.516 164.595 157.241C163.814 157.007 163.104 156.597 162.524 156.045C161.945 155.493 161.514 154.817 161.268 154.072C160.98 154.798 160.548 155.469 160.003 156.045C159.401 156.568 158.695 156.975 157.93 157.241ZM187.914 125.575C187.568 125.575 187.234 125.452 186.977 125.232C186.719 125.011 186.556 124.707 186.518 124.379C186.228 121.7 185.254 116.908 183.847 115.571C182.443 114.232 177.43 113.304 174.608 113.028C174.332 113.026 174.061 112.947 173.831 112.8C173.601 112.653 173.422 112.444 173.316 112.2C173.21 111.956 173.182 111.688 173.235 111.429C173.288 111.169 173.421 110.931 173.615 110.743C173.879 110.492 174.236 110.351 174.608 110.351C177.419 110.075 182.443 109.147 183.847 107.808C185.254 106.47 186.228 101.713 186.52 99.0368C186.551 98.7046 186.711 98.3955 186.969 98.1706C187.227 97.9458 187.565 97.8217 187.914 97.823C188.264 97.8239 188.601 97.9489 188.86 98.1736C189.118 98.3984 189.28 98.7067 189.313 99.0387C189.601 101.713 190.586 106.506 191.982 107.835C193.378 109.165 198.401 110.102 201.22 110.378C201.498 110.379 201.768 110.458 201.998 110.605C202.229 110.752 202.408 110.961 202.515 111.205C202.621 111.449 202.649 111.718 202.596 111.977C202.543 112.236 202.411 112.475 202.216 112.663C202.085 112.787 201.93 112.886 201.759 112.953C201.588 113.021 201.405 113.055 201.22 113.055C198.41 113.33 193.386 114.269 191.982 115.598C190.575 116.928 189.601 121.71 189.311 124.405C189.267 124.728 189.102 125.026 188.845 125.241C188.587 125.456 188.257 125.576 187.914 125.575ZM181.869 111.698C183.327 112.074 184.68 112.75 185.834 113.679C186.814 114.777 187.526 116.071 187.914 117.463C188.305 116.07 189.016 114.777 189.995 113.679C191.147 112.747 192.5 112.071 193.958 111.698C192.501 111.337 191.147 110.67 189.995 109.745C189.012 108.642 188.301 107.343 187.914 105.943C187.528 107.343 186.817 108.642 185.834 109.745C184.682 110.67 183.326 111.337 181.869 111.698ZM322.385 298.906H8.46961C8.1925 298.905 7.92183 298.826 7.6916 298.679C7.46137 298.532 7.28182 298.323 7.1755 298.079C7.06918 297.835 7.04083 297.567 7.09401 297.307C7.14718 297.048 7.27951 296.809 7.47438 296.622C7.60513 296.497 7.76032 296.398 7.93108 296.331C8.10185 296.264 8.28484 296.229 8.46961 296.229H322.385C322.741 296.252 323.075 296.403 323.319 296.651C323.563 296.9 323.698 297.227 323.698 297.568C323.698 297.908 323.563 298.236 323.319 298.484C323.075 298.733 322.741 298.883 322.385 298.906Z" fill="#CFD8DC"/>
<path d="M71.8825 153.01C70.4142 149.25 67.5243 146.15 63.7808 144.319C60.0349 142.486 55.706 142.053 51.6428 143.105L50.7709 140.858L60.8815 139.741C61.8509 139.632 62.7524 139.211 63.4373 138.548C64.1222 137.885 64.5495 137.019 64.6486 136.093C64.7117 135.48 64.6287 134.86 64.4059 134.281C64.1879 133.7 63.8316 133.174 63.365 132.745C62.8984 132.317 62.3342 131.997 61.7164 131.811C61.0948 131.611 60.4333 131.55 59.7833 131.634C59.1332 131.717 58.512 131.942 57.9678 132.291L48.2973 138.439L36.7905 139.715C35.8259 139.83 34.9311 140.255 34.2529 140.919C33.5747 141.583 33.1535 142.448 33.0584 143.37C32.9967 143.984 33.079 144.6 33.3052 145.176C33.5232 145.758 33.8794 146.284 34.346 146.712C34.8126 147.141 35.3769 147.461 35.9947 147.647C36.6112 147.84 37.2658 147.897 37.9088 147.814C38.5519 147.73 39.1665 147.508 39.7063 147.164L48.1369 141.811L49.0087 144.06C45.1976 145.763 42.1925 148.764 40.5843 152.472C38.9769 156.178 38.8838 160.324 40.3231 164.093C40.3848 164.259 40.4804 164.412 40.6044 164.543C40.7284 164.674 40.8783 164.78 41.0455 164.856C41.2128 164.931 41.394 164.974 41.5788 164.983C41.7636 164.991 41.9484 164.964 42.1224 164.904L56.5901 159.836L62.7465 157.686L71.0579 154.776C71.407 154.652 71.6906 154.402 71.8469 154.08C72.0033 153.757 72.0198 153.389 71.8927 153.055L71.8825 153.01ZM52.6915 158.302L50.8182 158.963C48.3919 151.825 49.3747 146.684 51.2871 146.015C51.4559 145.961 51.6331 145.933 51.8114 145.935C53.9006 145.935 57.7067 149.262 60.4415 155.598L52.6915 158.302ZM59.5429 134.523C59.7307 134.402 59.9453 134.324 60.1699 134.296C60.3944 134.268 60.6228 134.289 60.8371 134.359C61.0513 134.43 61.2456 134.546 61.4046 134.7C61.5636 134.854 61.683 135.041 61.7534 135.246C61.8276 135.446 61.8542 135.66 61.8315 135.871C61.8087 136.082 61.7371 136.286 61.6218 136.468C61.5041 136.648 61.3455 136.801 61.1576 136.916C60.9697 137.03 60.7573 137.103 60.5361 137.129L54.4537 137.795L59.5429 134.523ZM38.1024 144.935C37.9176 145.054 37.7067 145.132 37.4857 145.161C37.2647 145.191 37.0396 145.172 36.8275 145.105C36.6141 145.041 36.4188 144.931 36.2563 144.784C36.0939 144.637 35.9686 144.456 35.8899 144.256C35.8157 144.056 35.789 143.843 35.8117 143.632C35.8345 143.42 35.9061 143.216 36.0215 143.035C36.1391 142.854 36.298 142.7 36.4863 142.586C36.6746 142.472 36.8875 142.399 37.1092 142.374L43.1895 141.705L38.1024 144.935ZM46.7695 148.594C46.2349 151.582 46.6769 155.571 48.1677 159.888L42.5439 161.861C41.9084 159.493 41.9664 157.003 42.7114 154.664C43.4565 152.325 44.8601 150.225 46.7695 148.594ZM63.055 154.671C61.2578 150.476 58.887 147.166 56.4955 145.211C59.0581 145.279 61.5524 146.014 63.7093 147.335C65.8662 148.656 67.6038 150.514 68.7343 152.708L63.057 154.669L63.055 154.671Z" fill="#670A6F"/>
</svg>
