<svg width="30" height="30" viewBox="0 0 30 30" fill="none" xmlns="http://www.w3.org/2000/svg">
<g clip-path="url(#clip0_40_264)">
<path d="M26.5969 0C27.4787 0 28.3245 0.350312 28.948 0.973872C29.5716 1.59743 29.9219 2.44316 29.9219 3.32501V26.5969C29.9219 27.4787 29.5716 28.3245 28.948 28.948C28.3245 29.5716 27.4787 29.9219 26.5969 29.9219H3.32501C2.88832 29.922 2.45589 29.8361 2.05242 29.6691C1.64895 29.502 1.28235 29.2571 0.973564 28.9483C0.664782 28.6396 0.419869 28.273 0.25282 27.8695C0.0857721 27.466 -0.000137785 27.0336 1.65874e-07 26.5969V3.32501C1.65874e-07 2.44316 0.350312 1.59743 0.973872 0.973872C1.59743 0.350312 2.44316 0 3.32501 0H26.5969ZM25.7664 25.7664V16.9557C25.7666 16.244 25.6265 15.5392 25.3542 14.8816C25.0819 14.224 24.6827 13.6265 24.1794 13.1232C23.6761 12.62 23.0786 12.2208 22.421 11.9485C21.7634 11.6762 21.0586 11.5361 20.3469 11.5362C18.9337 11.5362 17.2886 12.4013 16.4906 13.6979V11.8522H11.8522V25.7664H16.4906V17.571C16.4887 16.9562 16.7308 16.3657 17.1639 15.9293C17.597 15.4928 18.1856 15.2461 18.8004 15.2434C19.4177 15.2434 20.0098 15.4886 20.4463 15.9251C20.8828 16.3616 21.128 16.9537 21.128 17.571V25.7664H25.7664ZM6.44948 9.24219C7.19015 9.24219 7.90049 8.94796 8.42423 8.42423C8.94796 7.90049 9.24219 7.19015 9.24219 6.44948C9.24387 5.70675 8.95071 4.99371 8.42709 4.46695C7.90348 3.94018 7.19221 3.64275 6.44948 3.63997C5.70435 3.63997 4.98974 3.93597 4.46286 4.46286C3.93597 4.98974 3.63997 5.70435 3.63997 6.44948C3.64275 7.19221 3.94018 7.90348 4.46695 8.42709C4.99371 8.95071 5.70675 9.24387 6.44948 9.24219ZM8.76029 25.7664V11.8522H4.15547V25.7664H8.76029Z" fill="#242323"/>
</g>
<defs>
<clipPath id="clip0_40_264">
<rect width="30" height="30" fill="white"/>
</clipPath>
</defs>
</svg>
