<svg width="65" height="49" viewBox="0 0 65 49" fill="none" xmlns="http://www.w3.org/2000/svg">
<g clip-path="url(#clip0_40_256)">
<mask id="mask0_40_256" style="mask-type:luminance" maskUnits="userSpaceOnUse" x="9" y="6" width="50" height="40">
<path d="M17.4458 45.1268L58.872 37.3674L50.6582 6.76211L9.23193 14.5215L17.4458 45.1268Z" fill="white"/>
</mask>
<g mask="url(#mask0_40_256)">
<path d="M37.4914 40.9842C31.2281 37.9256 26.904 33.1212 25.4124 27.5633C23.9208 22.0054 25.3755 16.1185 29.4762 11.1188C29.6057 10.9703 29.7719 10.8409 29.9652 10.738C30.1585 10.6351 30.3751 10.5607 30.6026 10.5192C31.0553 10.4357 31.5256 10.4869 31.9103 10.6626L37.0395 13.0233C37.2365 13.1147 37.4045 13.2361 37.5335 13.38C37.6624 13.5239 37.7497 13.6874 37.7899 13.8607C37.8705 14.1856 37.7808 14.5279 37.5391 14.818C36.5355 16.0708 35.7671 17.4143 35.2566 18.8085C35.1719 19.0499 34.9991 19.2721 34.7582 19.4499C34.5173 19.6276 34.2178 19.7537 33.894 19.8137L28.5434 20.8159C28.2246 22.866 28.3365 24.924 28.875 26.9144C29.4 28.9047 30.3561 30.8016 31.7063 32.5321L37.057 31.5299C37.3803 31.4689 37.7152 31.4762 38.0236 31.551C38.3321 31.6258 38.6016 31.7651 38.8015 31.9529C39.9716 33.0391 41.3551 33.9844 42.9091 34.7593C43.2761 34.9356 43.5321 35.2134 43.6252 35.5363C43.6773 35.7072 43.6819 35.8861 43.6389 36.0621C43.5958 36.2382 43.506 36.4078 43.3747 36.5607L39.9422 40.5254C39.8139 40.6751 39.6484 40.8058 39.4554 40.9099C39.2624 41.0141 39.0457 41.0898 38.8178 41.1325C38.5899 41.1752 38.3553 41.1841 38.1275 41.1587C37.8997 41.1334 37.684 41.0737 37.4914 40.9842ZM32.1739 17.458C32.5947 16.4984 33.1195 15.5624 33.743 14.6596L31.5128 13.6437C30.5293 15.0391 29.755 16.5052 29.2047 18.0139L32.1739 17.458ZM39.5512 36.2988C38.5266 35.6911 37.5752 35.0183 36.7087 34.2865L33.7742 34.8362C35.0156 36.0203 36.4562 37.0774 38.0633 37.9835L39.5512 36.2988Z" fill="#242323"/>
</g>
</g>
<defs>
<clipPath id="clip0_40_256">
<rect width="45.3102" height="35.8498" fill="white" transform="matrix(0.746658 -0.665208 -0.851728 -0.523985 30.5344 48.9253)"/>
</clipPath>
</defs>
</svg>
