<svg width="42" height="29" viewBox="0 0 42 29" fill="none" xmlns="http://www.w3.org/2000/svg">
<g clip-path="url(#clip0_40_252)">
<path d="M6.2656 5.74707C6.2676 4.98557 6.57098 4.25584 7.10944 3.71738C7.6479 3.17891 8.37764 2.87553 9.13913 2.87353L32.1265 2.87353C32.888 2.87553 33.6177 3.17892 34.1562 3.71738C34.6946 4.25584 34.998 4.98557 35 5.74707L35 22.9873C34.998 23.7488 34.6946 24.4786 34.1562 25.017C33.6177 25.5555 32.888 25.8589 32.1265 25.8609L9.13913 25.8609C8.37764 25.8589 7.6479 25.5555 7.10944 25.017C6.57098 24.4786 6.26759 23.7488 6.2656 22.9873L6.2656 5.74707ZM9.13913 5.74707L20.6333 12.93L32.1255 5.74707L9.13913 5.74707ZM9.13913 22.9873L32.1265 22.9873L32.1265 8.61966L20.6323 15.8044L9.13913 8.6206L9.13913 22.9873Z" fill="#242323"/>
</g>
<defs>
<clipPath id="clip0_40_252">
<rect width="42" height="29" fill="white" transform="matrix(-1 -7.49338e-08 -1.01993e-07 1 42 0)"/>
</clipPath>
</defs>
</svg>
